<svg width="125" height="150" viewBox="0 0 125 150" fill="none" xmlns="http://www.w3.org/2000/svg">
<path d="M117.069 55.5358C112.689 55.5358 109.14 58.4009 109.14 61.9315V130.838C109.14 133.932 106.022 136.448 102.188 136.448H22.8105C18.9769 136.448 15.859 133.933 15.859 130.838V61.9315C15.859 58.4 12.31 55.5358 7.92951 55.5358C3.54901 55.5358 0 58.4009 0 61.9315V130.838C0 140.986 10.2329 149.239 22.8116 149.239H102.188C114.767 149.239 125 140.986 125 130.838V61.9315C124.999 58.4009 121.45 55.5358 117.069 55.5358Z" fill="white"/>
<path d="M7.92951 42.802H43.8953H81.1025H117.068C121.449 42.802 124.998 39.9369 124.998 36.4063C124.998 32.8758 121.449 30.0107 117.068 30.0107H89.0321V21.4036C89.0331 9.60243 77.1298 0 62.4995 0C47.8691 0 35.9658 9.60243 35.9658 21.4036V30.0107H7.92951C3.54901 30.0107 0 32.8758 0 36.4063C0 39.9369 3.54901 42.802 7.92951 42.802ZM51.8248 21.4036C51.8248 16.6567 56.6131 12.7921 62.4984 12.7921C68.3837 12.7921 73.172 16.6567 73.172 21.4036V30.0107H51.8248V21.4036Z" fill="white"/>
<path d="M31.4165 78.1591V114.424C31.4165 117.956 34.9655 120.82 39.346 120.82C43.7265 120.82 47.2755 117.955 47.2755 114.424V78.1591C47.2755 74.6277 43.7265 71.7635 39.346 71.7635C34.9655 71.7635 31.4165 74.6277 31.4165 78.1591Z" fill="white"/>
<path d="M77.7213 78.1591V114.424C77.7213 117.956 81.2703 120.82 85.6508 120.82C90.0313 120.82 93.5804 117.955 93.5804 114.424V78.1591C93.5804 74.6277 90.0313 71.7635 85.6508 71.7635C81.2703 71.7635 77.7213 74.6277 77.7213 78.1591Z" fill="white"/>
</svg>
