<svg width="151" height="145" viewBox="0 0 151 145" fill="none" xmlns="http://www.w3.org/2000/svg">
<path d="M148.864 15.5941L135.087 2.09511C133.665 0.6994 131.795 0 129.928 0C128.06 0 126.193 0.696304 124.771 2.09201L113.751 12.8739L137.844 36.474L148.864 25.6952C151.712 22.9038 151.712 18.3763 148.864 15.5941Z" fill="white"/>
<path d="M42.2154 82.9345L66.3118 106.538L132.687 41.5307L108.591 17.9275L42.2154 82.9345Z" fill="white"/>
<path d="M37.0145 87.9851L31.8704 116.617L61.1109 111.585L37.0145 87.9851Z" fill="white"/>
<path d="M103.626 129.377H12.773V40.231H76.8902L92.6916 24.7575H7.19996C1.58903 24.7575 -3 29.2603 -3 34.7657V134.845C-3 140.35 1.58903 144.853 7.19996 144.853H109.196C114.807 144.853 119.396 140.35 119.396 134.845V63.2926L103.626 78.7382V129.377Z" fill="white"/>
</svg>
