<svg width="108" height="150" viewBox="0 0 108 150" fill="none" xmlns="http://www.w3.org/2000/svg">
<path d="M102.999 56.0458L55.1965 140.064L5.04659 55.8753C5.03332 55.5811 5.02077 55.2292 5.01205 54.8246C4.98126 53.3964 4.99839 51.324 5.19636 48.825C5.5946 43.798 6.7126 37.2013 9.52855 30.682C12.3291 24.1983 16.774 17.8618 23.8393 13.1203C30.8949 8.38538 40.922 5 55.2956 5C68.1838 5 77.3309 8.33247 83.9104 13.036C90.5304 17.7686 94.8898 24.134 97.7598 30.7015C100.638 37.287 101.958 43.9446 102.547 49.0082C102.84 51.5265 102.949 53.6153 102.984 55.0563C102.994 55.4323 102.998 55.7634 102.999 56.0458Z" fill="#03DAC5" stroke="#332940" stroke-width="10"/>
</svg>
